<svg xmlns="http://www.w3.org/2000/svg" fill="none" viewBox="0 0 113 158">
  <rect width="113" height="158" fill="#fff" rx="10"/>
  <path fill="#1A6628" d="M60.6 60.3v5.6h20v-5.6h-20ZM54.4 88v5.2h32.4V88H54.4ZM22.2 35.5v5.8h27v-5.8h-27Zm25 0v1.1C41.1 49.7 26 60 11.5 64.3a28 28 0 0 1 4 5.4C31 64.3 46.8 53.5 54 37.4l-4.5-2.2-1.2.3H47Zm15-4.1-5.8 1.8a66 66 0 0 0 40.8 35.1 31 31 0 0 1 4.4-5.6 59.8 59.8 0 0 1-39.3-31.3ZM82 32c-3.5 4-9.8 9.3-14.2 12.6L72 48c4.6-3.2 10.6-7.8 15.3-12.2L82 32Zm11.5 9.7c-3.6 3.8-10.1 9.1-14.7 12.3l4.4 3.4c4.7-3 11-7.6 15.6-12l-5.3-3.7Zm-68.2 19v5.6h17.1v17.4h6.4v-23H25.2Zm-2.5 15.7c-1 7-3 16-4.6 21.8l6 1A360 360 0 0 0 29 76.4h-6.3ZM42.3 91v1c-1.1 13.7-2.2 19.1-4 20.8-.7.7-1.7.8-3.6.8-1.8 0-7 0-12.4-.5a15 15 0 0 1 2.2 6.2c5.2.2 10.3.3 12.8.2 3-.3 4.7-.8 6.5-2.4 2.4-2.5 3.7-8.7 5-23.2l.1-3h-6.6ZM58 60.3v7.4c0 4.7-1.3 10-9 14 1.4 1 3.7 3.2 4.6 4.6a20 20 0 0 0 10.6-18.5v-7.5H58ZM85 88v1c-5.3 14.5-19.7 22.3-36.2 25.4 1.2 1.3 2.6 3.7 3.2 5.3 18.1-4 33.2-12.6 39.6-30.5l-4.2-1.5-1.1.3H85Zm-21.6 4.8L58 94.4c6.3 13.5 19.2 22 36.7 25.3 1-1.7 2.8-4.5 4.4-6C82 111.3 69 104 63.5 93ZM26 76.4 25 82h19.8v-5.6H26ZM23 91l-1 5.5h22V91H23Zm54.2-30.7v14.4c0 4.6.4 6 1.8 7.3 1.2 1 3.3 1.4 5.3 1.4H89c1.3 0 3.2-.1 4.2-.5 1.2-.4 2.4-1.1 2.9-2.2.6-1.1 1-4 1.1-6.4a19 19 0 0 1-5.3-2.7 39 39 0 0 1-.3 5c-.3.7-.8 1.2-1.2 1.4l-2.1.1h-2.8c-.8 0-1.2 0-1.6-.3-.4-.3-.4-1.2-.4-2.6v-15h-6.3ZM19.7 46.9c4.5 2.8 9.7 7 12.2 9.9l4.5-4.4A65 65 0 0 0 23.9 43l-4.2 4Z"/>
</svg>
