<svg xmlns="http://www.w3.org/2000/svg" fill="none" viewBox="0 0 113 158">
  <rect width="113" height="158" fill="#fff" rx="10"/>
  <path fill="#1A198F" d="M14.8 40v7h84.5v-7H14.8Zm19.7 38.6v5.8H80v-5.8H34.5Zm-2 15.6v6h49.2v-6H32.5Zm20.7-12.9V117H60V81.3h-7ZM19.9 57v61.6h7.2v-55h62.3V57H19.9Zm67 0v53.3c0 1.6-.4 2-2.2 2.1-1.7.1-7.6.1-13.7-.2a25 25 0 0 1 2.6 6.6c7.9 0 13.4-.1 16.4-1.2 3.2-1 4.2-3 4.2-7.3V57H87Zm-47.6 9.8c2.4 3.6 5 8.5 5.9 11.8l6-2.3c-1-3.1-3.5-7.8-6.1-11.3l-5.8 1.8ZM68.7 65c-1.6 4.1-4.6 10.2-7 14.1l5.2 1.8c2.5-3.7 5.5-9 8-14L68.7 65ZM53 30.5v31h8v-31h-8Z"/>
</svg>
