<svg xmlns="http://www.w3.org/2000/svg" fill="none" viewBox="0 0 113 158">
  <rect width="113" height="158" fill="#fff" rx="10"/>
  <path fill="#1A198F" d="M23.5 105.6v6.7h68v-6.7h-68Zm-4.7-48v60.7h7v-54h62.5V118h7.3V57.5H18.8Zm44.2 3V81c0 6.9 1.7 8.8 8.8 8.8h9.5c5.4 0 7.3-2.2 8-11.2a18 18 0 0 1-6-2.5c-.3 6.4-.8 7.3-2.9 7.3h-7.7c-2.4 0-2.7-.3-2.7-2.4V60.6h-7ZM14.7 36.7v7H99v-7H14.7Zm27.1 4.7v20h7v-20h-7Zm21.2 0v20h7.2v-20H63Zm-20.9 18v9.3c0 7.3-2.4 15.7-15.5 22 1.4 1 4.1 3.4 5 4.8A28 28 0 0 0 48.9 69v-9.5h-6.7Z"/>
</svg>
