<svg xmlns="http://www.w3.org/2000/svg" fill="none" viewBox="0 0 113 158">
  <rect width="113" height="158" fill="#fff" rx="10"/>
  <circle cx="31.5" cy="36.5" r="18.5" fill="#000E40"/>
  <circle cx="31.5" cy="36.5" r="15.5" stroke="#fff" stroke-width="2"/>
  <path stroke="#fff" stroke-linecap="round" stroke-width="3" d="M21.2 39.6c1.2 2.4 3.7 2.5 6 2.7 3.4.2 6.7.2 10-.4 1.9-.3 4.3-.8 5-2.8"/>
  <path stroke="#fff" stroke-linecap="round" stroke-width="3" d="M24.6 41.4c.5-2.8 1-5.8 2.4-8.4.2-.4.5-.9 1-.8.7 0 1.3.8 1.7 1.3a12.3 12.3 0 0 1 1.6 2.9v.2l.1-.3.2-.6c.4-1.2 1.1-4.9 3.2-3.5 2.4 1.5 3.2 5 4 7.6l.1 1"/>
  <circle cx="82.5" cy="121.5" r="18.5" fill="#000E40"/>
  <circle cx="82.5" cy="121.5" r="15.5" stroke="#fff" stroke-width="2"/>
  <path stroke="#fff" stroke-linecap="round" stroke-width="3" d="M72.2 124.6c1.2 2.4 3.7 2.5 6 2.7 3.4.2 6.7.2 10-.4 1.9-.3 4.3-.8 5-2.8"/>
  <path stroke="#fff" stroke-linecap="round" stroke-width="3" d="M75.6 126.4c.5-2.8 1-5.8 2.4-8.4.2-.4.5-.9 1-.8.7 0 1.3.8 1.7 1.3a12.3 12.3 0 0 1 1.6 2.9v.2l.1-.3.2-.6c.4-1.2 1.1-4.9 3.2-3.5 2.4 1.5 3.2 5 4 7.6l.1 1"/>
  <circle cx="56.5" cy="78.5" r="18.5" fill="#9C151E"/>
  <circle cx="56.5" cy="78.5" r="15.5" stroke="#fff" stroke-width="2"/>
  <path stroke="#fff" stroke-linecap="round" stroke-width="3" d="M46.2 81.6c1.2 2.4 3.7 2.5 6 2.7 3.4.2 6.7.2 10-.4 1.9-.3 4.3-.8 5-2.8"/>
  <path stroke="#fff" stroke-linecap="round" stroke-width="3" d="M49.6 83.4c.5-2.8 1-5.8 2.4-8.4.2-.4.5-.9 1-.8.7 0 1.3.8 1.7 1.3a12.3 12.3 0 0 1 1.6 2.9v.2l.1-.3.2-.6c.4-1.2 1.1-4.9 3.2-3.5 2.4 1.5 3.2 5 4 7.6l.1 1"/>
</svg>
