<svg xmlns="http://www.w3.org/2000/svg" fill="none" viewBox="0 0 113 158">
  <rect width="113" height="158" fill="#fff" rx="10"/>
  <circle cx="39" cy="41" r="18" fill="#000E40"/>
  <circle cx="39" cy="41" r="15.1" stroke="#fff" stroke-width="2"/>
  <path stroke="#fff" stroke-linecap="round" stroke-width="3" d="M29 44c1.1 2.3 3.6 2.5 5.8 2.6 3.3.3 6.5.2 9.7-.3 1.9-.3 4.3-.8 5-2.8"/>
  <path stroke="#fff" stroke-linecap="round" stroke-width="3" d="M32.3 45.8c.5-2.7 1-5.7 2.3-8.2.2-.4.5-.9 1-.8.6.1 1.3.8 1.7 1.3.5.7.9 1.6 1.3 2.4l.2.4v.2l.1-.3.2-.5c.4-1.3 1-4.8 3.1-3.5 2.4 1.5 3.2 4.8 3.9 7.4l.1 1"/>
  <circle cx="74" cy="41" r="18" fill="#000E40"/>
  <circle cx="74" cy="41" r="15.1" stroke="#fff" stroke-width="2"/>
  <path stroke="#fff" stroke-linecap="round" stroke-width="3" d="M64 44c1.1 2.3 3.6 2.5 5.8 2.6 3.3.3 6.5.2 9.7-.3 1.9-.3 4.3-.8 5-2.8"/>
  <path stroke="#fff" stroke-linecap="round" stroke-width="3" d="M67.3 45.8c.5-2.7 1-5.7 2.3-8.2.2-.4.5-.9 1-.8.6.1 1.3.8 1.7 1.3.5.7.9 1.6 1.3 2.4l.2.4v.2l.1-.3.2-.5c.4-1.3 1-4.8 3.1-3.5 2.4 1.5 3.2 4.8 3.9 7.4l.1 1"/>
  <circle cx="39" cy="82" r="18" fill="#9C151E"/>
  <path stroke="#fff" stroke-width="2" d="M54 82a15 15 0 1 1-30 0 15 15 0 0 1 30 0Z"/>
  <path stroke="#fff" stroke-linecap="round" stroke-width="3" d="M29 85c1.1 2.3 3.6 2.5 5.8 2.6 3.3.3 6.5.2 9.7-.3 1.9-.3 4.3-.8 5-2.8"/>
  <path stroke="#fff" stroke-linecap="round" stroke-width="3" d="M32.3 86.8c.5-2.7 1-5.7 2.3-8.2.2-.4.5-.9 1-.8.6.1 1.3.8 1.7 1.3.5.7.9 1.6 1.3 2.4l.2.4v.2l.1-.3.2-.5c.4-1.3 1-4.8 3.1-3.5 2.4 1.5 3.2 4.8 3.9 7.4l.1 1"/>
  <circle cx="74" cy="82" r="18" fill="#9C151E"/>
  <path stroke="#fff" stroke-width="2" d="M89 82a15 15 0 1 1-30 0 15 15 0 0 1 30 0Z"/>
  <path stroke="#fff" stroke-linecap="round" stroke-width="3" d="M64 85c1.1 2.3 3.6 2.5 5.8 2.6 3.3.3 6.5.2 9.7-.3 1.9-.3 4.3-.8 5-2.8"/>
  <path stroke="#fff" stroke-linecap="round" stroke-width="3" d="M67.3 86.8c.5-2.7 1-5.7 2.3-8.2.2-.4.5-.9 1-.8.6.1 1.3.8 1.7 1.3.5.7.9 1.6 1.3 2.4l.2.4v.2l.1-.3.2-.5c.4-1.3 1-4.8 3.1-3.5 2.4 1.5 3.2 4.8 3.9 7.4l.1 1"/>
  <circle cx="39" cy="117" r="18" fill="#9C151E"/>
  <path stroke="#fff" stroke-width="2" d="M54 117a15 15 0 1 1-30 0 15 15 0 0 1 30 0Z"/>
  <path stroke="#fff" stroke-linecap="round" stroke-width="3" d="M29 120c1.1 2.3 3.6 2.5 5.8 2.6 3.3.3 6.5.2 9.7-.3 1.9-.3 4.3-.8 5-2.8"/>
  <path stroke="#fff" stroke-linecap="round" stroke-width="3" d="M32.3 121.8c.5-2.7 1-5.7 2.3-8.2.2-.4.5-.9 1-.8.6.1 1.3.8 1.7 1.3.5.7.9 1.6 1.3 2.4l.2.4v.2l.1-.3.2-.5c.4-1.3 1-4.8 3.1-3.5 2.4 1.5 3.2 4.8 3.9 7.4l.1 1"/>
  <circle cx="74" cy="117" r="18" fill="#9C151E"/>
  <path stroke="#fff" stroke-width="2" d="M89 117a15 15 0 1 1-30 0 15 15 0 0 1 30 0Z"/>
  <path stroke="#fff" stroke-linecap="round" stroke-width="3" d="M64 120c1.1 2.3 3.6 2.5 5.8 2.6 3.3.3 6.5.2 9.7-.3 1.9-.3 4.3-.8 5-2.8"/>
  <path stroke="#fff" stroke-linecap="round" stroke-width="3" d="M67.3 121.8c.5-2.7 1-5.7 2.3-8.2.2-.4.5-.9 1-.8.6.1 1.3.8 1.7 1.3.5.7.9 1.6 1.3 2.4l.2.4v.2l.1-.3.2-.5c.4-1.3 1-4.8 3.1-3.5 2.4 1.5 3.2 4.8 3.9 7.4l.1 1"/>
</svg>
