<svg xmlns="http://www.w3.org/2000/svg" fill="none" viewBox="0 0 113 158">
  <rect width="113" height="158" fill="#fff" rx="10"/>
  <circle cx="39" cy="29" r="18" fill="#000E40"/>
  <circle cx="39" cy="29" r="15.1" stroke="#fff" stroke-width="2"/>
  <path stroke="#fff" stroke-linecap="round" stroke-width="3" d="M29 32c1.1 2.3 3.6 2.5 5.8 2.6 3.3.3 6.5.2 9.7-.3 1.9-.3 4.3-.8 5-2.8"/>
  <path stroke="#fff" stroke-linecap="round" stroke-width="3" d="M32.3 33.8c.5-2.7 1-5.7 2.3-8.2.2-.4.5-.9 1-.8.6.1 1.3.8 1.7 1.3.5.7.9 1.6 1.3 2.4l.2.4v.2l.1-.3.2-.5c.4-1.3 1-4.8 3.1-3.5 2.4 1.5 3.2 4.8 3.9 7.4l.1 1"/>
  <circle cx="74" cy="29" r="18" fill="#000E40"/>
  <circle cx="74" cy="29" r="15.1" stroke="#fff" stroke-width="2"/>
  <path stroke="#fff" stroke-linecap="round" stroke-width="3" d="M64 32c1.1 2.3 3.6 2.5 5.8 2.6 3.3.3 6.5.2 9.7-.3 1.9-.3 4.3-.8 5-2.8"/>
  <path stroke="#fff" stroke-linecap="round" stroke-width="3" d="M67.3 33.8c.5-2.7 1-5.7 2.3-8.2.2-.4.5-.9 1-.8.6.1 1.3.8 1.7 1.3.5.7.9 1.6 1.3 2.4l.2.4v.2l.1-.3.2-.5c.4-1.3 1-4.8 3.1-3.5 2.4 1.5 3.2 4.8 3.9 7.4l.1 1"/>
  <circle cx="39" cy="63" r="18" fill="#000E40"/>
  <circle cx="39" cy="63" r="15.1" stroke="#fff" stroke-width="2"/>
  <path stroke="#fff" stroke-linecap="round" stroke-width="3" d="M29 66c1.1 2.3 3.6 2.5 5.8 2.6 3.3.3 6.5.2 9.7-.3 1.9-.3 4.3-.8 5-2.8"/>
  <path stroke="#fff" stroke-linecap="round" stroke-width="3" d="M32.3 67.8c.5-2.7 1-5.7 2.3-8.2.2-.4.5-.9 1-.8.6.1 1.3.8 1.7 1.3.5.7.9 1.6 1.3 2.4l.2.4v.2l.1-.3.2-.5c.4-1.3 1-4.8 3.1-3.5 2.4 1.5 3.2 4.8 3.9 7.4l.1 1"/>
  <circle cx="74" cy="63" r="18" fill="#000E40"/>
  <circle cx="74" cy="63" r="15.1" stroke="#fff" stroke-width="2"/>
  <path stroke="#fff" stroke-linecap="round" stroke-width="3" d="M64 66c1.1 2.3 3.6 2.5 5.8 2.6 3.3.3 6.5.2 9.7-.3 1.9-.3 4.3-.8 5-2.8"/>
  <path stroke="#fff" stroke-linecap="round" stroke-width="3" d="M67.3 67.8c.5-2.7 1-5.7 2.3-8.2.2-.4.5-.9 1-.8.6.1 1.3.8 1.7 1.3.5.7.9 1.6 1.3 2.4l.2.4v.2l.1-.3.2-.5c.4-1.3 1-4.8 3.1-3.5 2.4 1.5 3.2 4.8 3.9 7.4l.1 1"/>
  <circle cx="39" cy="97" r="18" fill="#000E40"/>
  <circle cx="39" cy="97" r="15.1" stroke="#fff" stroke-width="2"/>
  <path stroke="#fff" stroke-linecap="round" stroke-width="3" d="M29 100c1.1 2.3 3.6 2.5 5.8 2.6 3.3.3 6.5.2 9.7-.3 1.9-.3 4.3-.8 5-2.8"/>
  <path stroke="#fff" stroke-linecap="round" stroke-width="3" d="M32.3 101.8c.5-2.7 1-5.7 2.3-8.2.2-.4.5-.9 1-.8.6.1 1.3.8 1.7 1.3.5.7.9 1.6 1.3 2.4l.2.4v.2l.1-.3.2-.5c.4-1.3 1-4.8 3.1-3.5 2.4 1.5 3.2 4.8 3.9 7.4l.1 1"/>
  <circle cx="74" cy="97" r="18" fill="#000E40"/>
  <circle cx="74" cy="97" r="15.1" stroke="#fff" stroke-width="2"/>
  <path stroke="#fff" stroke-linecap="round" stroke-width="3" d="M64 100c1.1 2.3 3.6 2.5 5.8 2.6 3.3.3 6.5.2 9.7-.3 1.9-.3 4.3-.8 5-2.8"/>
  <path stroke="#fff" stroke-linecap="round" stroke-width="3" d="M67.3 101.8c.5-2.7 1-5.7 2.3-8.2.2-.4.5-.9 1-.8.6.1 1.3.8 1.7 1.3.5.7.9 1.6 1.3 2.4l.2.4v.2l.1-.3.2-.5c.4-1.3 1-4.8 3.1-3.5 2.4 1.5 3.2 4.8 3.9 7.4l.1 1"/>
  <circle cx="39" cy="131" r="18" fill="#000E40"/>
  <circle cx="39" cy="131" r="15.1" stroke="#fff" stroke-width="2"/>
  <path stroke="#fff" stroke-linecap="round" stroke-width="3" d="M29 134c1.1 2.3 3.6 2.5 5.8 2.6 3.3.3 6.5.2 9.7-.3 1.9-.3 4.3-.8 5-2.8"/>
  <path stroke="#fff" stroke-linecap="round" stroke-width="3" d="M32.3 135.8c.5-2.7 1-5.7 2.3-8.2.2-.4.5-.9 1-.8.6.1 1.3.8 1.7 1.3.5.7.9 1.6 1.3 2.4l.2.4v.2l.1-.3.2-.5c.4-1.3 1-4.8 3.1-3.5 2.4 1.5 3.2 4.8 3.9 7.4l.1 1"/>
  <circle cx="74" cy="131" r="18" fill="#000E40"/>
  <circle cx="74" cy="131" r="15.1" stroke="#fff" stroke-width="2"/>
  <path stroke="#fff" stroke-linecap="round" stroke-width="3" d="M64 134c1.1 2.3 3.6 2.5 5.8 2.6 3.3.3 6.5.2 9.7-.3 1.9-.3 4.3-.8 5-2.8"/>
  <path stroke="#fff" stroke-linecap="round" stroke-width="3" d="M67.3 135.8c.5-2.7 1-5.7 2.3-8.2.2-.4.5-.9 1-.8.6.1 1.3.8 1.7 1.3.5.7.9 1.6 1.3 2.4l.2.4v.2l.1-.3.2-.5c.4-1.3 1-4.8 3.1-3.5 2.4 1.5 3.2 4.8 3.9 7.4l.1 1"/>
</svg>
