<svg xmlns="http://www.w3.org/2000/svg" fill="none" viewBox="0 0 113 158">
  <rect width="113" height="158" fill="#fff" rx="10"/>
  <path fill="#000" stroke="#000" stroke-linecap="round" d="M51.9 72.4c1.2-9-3.3-19.6-5.7-23.8-5.6 2.2-16.6 8.2-15.4 15 1.2 6.6 14.5 8.6 21 8.8Z"/>
  <path stroke="#000" stroke-linecap="round" stroke-width="8" d="M96.8 62.1c-11-19.6-50-26.8-66-6.3-3.8 4.8-6.3 14.8 25.8 20.5 32.2 5.7 35.6 23 33.4 31-4.7 16.3-28.6 30.9-57.4 5"/>
  <circle cx="39.7" cy="57.1" r="3.3" fill="#fff"/>
  <path fill="#000E40" stroke="#000" stroke-width="4" d="M68.4 73.7c-1.3 3.5 3.2 14.1 5.6 19 9.9-2 13.4-11 14-15.3-6-2.7-18.2-7.2-19.6-3.7Z"/>
  <path fill="#208032" stroke="#000" stroke-width="4" d="M92.2 32.4c-4.6-.3-17 8.3-22.6 12.6 4.1 1.9 13.9 6 20 8.1 6.1 2.1 8-1 8.7-2.8 2.5-7.2-1.5-17.6-6.1-17.9Z"/>
  <path fill="#000E40" d="M13.5 108.5c-.8 3.6 15.7 6.2 23.5 7l-6-8-3-4.5c-4 .2-13.7 1.9-14.5 5.5Z"/>
  <path fill="#208032" d="M36.5 92c-1.6 0-6.5 7.2-9 11l9 12c3.5-9.5 2-23 0-23Z"/>
  <path stroke="#000" stroke-width="4" d="M13 109.5c3 3.5 17.7 6.4 24.8 7.4 1.3-4.7 4-18.4 1.3-24.2-2.8-5.8-10 9.1-11.9 10-2.4 1-17.2 3.3-14.2 6.8Z"/>
</svg>
