<svg xmlns="http://www.w3.org/2000/svg" fill="none" viewBox="0 0 154 167">
  <path fill="#000" stroke="#000" stroke-linecap="round" d="M69 70.7c2-15.2-5.4-33-9.4-40-9.5 3.6-28 13.8-26 25S58 70.3 69 70.7Z"/>
  <path stroke="#000" stroke-linecap="round" stroke-width="11" d="M144.6 53.4c-18.5-33-84-45.2-111-10.7-6.4 8-10.5 24.9 43.5 34.5 54 9.6 59.8 38.6 56 52-8 27.5-48 52-96.5 8.5"/>
  <circle cx="48.6" cy="44.9" r="5.5" fill="#fff"/>
  <path fill="#FD636F" stroke="#000" stroke-width="5" d="M96.9 72.8c-2.2 5.8 5.4 23.8 9.4 32 16.5-3.3 22.5-18.6 23.4-25.8-10-4.5-30.6-12-32.8-6.2Z"/>
  <path fill="#FEB7B7" stroke="#000" stroke-width="5" d="M136.8 3.4c-7.7-.6-28.5 13.9-37.9 21.2 7 3 23.3 10.1 33.6 13.6s13.4-1.7 14.6-4.8c4.2-12-2.6-29.5-10.3-30Z"/>
  <path fill="#EEB7BF" d="M28.5 120 2 131.1h2l5.2 3.8L46 145.5 28.5 120Z"/>
  <path fill="#F59CA9" d="m45.6 145-17-23.5 7.5-10.9 10.3-7.6 2.2 5.5-1.7 2.1 1.7 17.9-3 16.5Z"/>
  <path stroke="#000" stroke-width="5" d="M3.6 133c5 6 29.9 10.7 41.7 12.4 2.3-7.9 7-30.8 2.3-40.7-4.7-9.8-17 15.4-20 16.8-4 1.8-29 5.6-24 11.5Z"/>
</svg>
