<svg xmlns="http://www.w3.org/2000/svg" fill="none" viewBox="0 0 113 158">
  <rect width="113" height="158" fill="#fff" rx="10"/>
  <path fill="#000" d="M30.8 15.1v51.2h4.8V19.8h42.8v46h5V15.1H30.8Zm2.5 42v4.7h47.8V57H33.3Zm27.3-38.9v20c0 3.9.5 5 1.6 5.8 1.1.8 2.9 1.1 4.3 1.1H71c1.3 0 3-.1 3.9-.5a4 4 0 0 0 2.2-2.4c.4-1.2.6-4.2.7-6.8a12 12 0 0 1-3.7-2c0 2.8-.1 5-.4 6 0 .8-.5 1.3-1 1.5a6 6 0 0 1-2 .2h-3c-.7 0-1.3-.1-1.8-.3-.4-.2-.5-.9-.5-2.2V18.2h-4.7Zm-13-.1c-.5 12.8-1.8 22.4-11 27.6 1 .7 2.4 2.3 3 3.5C49.9 43 51.6 32.5 52.3 18h-4.7Z"/>
  <path fill="#9C151E" d="M54.6 99v34.3h4.6V99.1h-4.6Zm-14 9.6h32.7v4.6H40.7v-4.6Zm0-8h32.7v4.7H40.7v-4.6Zm-4.5-3.4v19.5h42V97.2h-42Zm-4 23.4V143h4.5v-18.4H79v-4.1H32Zm45.8 0V138c0 .8-.3 1-1.1 1h-6.2c.6 1.1 1.2 2.7 1.4 4 4.1 0 6.8-.1 8.5-.7 1.6-.8 2-1.9 2-4.2v-17.6h-4.6Zm-37.3 11.6.3 4.2 29.4-1.6v-3.9c-11 .6-22.3 1-29.7 1.3Zm23.7-5.3c2.8 3.6 5.6 8.5 6.5 11.7l3.8-1.3c-1-3.3-3.8-8-6.7-11.5l-3.6 1.1ZM43.2 84.2v12.1h4.6v-12h-4.6Zm22.5 0v12.1h4.7v-12h-4.7Zm-36.3 4v4.1h55.2v-4.2H29.4Z"/>
</svg>
