<svg xmlns="http://www.w3.org/2000/svg" fill="none" viewBox="0 0 113 158">
  <rect width="113" height="158" fill="#fff" rx="10"/>
  <path fill="#000" d="m28.1 34.8.8 4.8 57.2-9.1-.9-5-57 9.3Zm18.5-24.4v45.8c0 7.7 2.5 9.7 10.4 9.7h16.8c7.9 0 9.5-3.7 10.3-14.3-1.4-.4-3.6-1.3-4.9-2.3-.6 9.5-1.3 11.8-5.6 11.8H57.2c-4.6 0-5.4-1-5.4-4.9V10.4h-5.2Z"/>
  <path fill="#9C151E" d="M54.6 99v34.3h4.6V99.1h-4.6Zm-14 9.6h32.7v4.6H40.7v-4.6Zm0-8h32.7v4.7H40.7v-4.6Zm-4.5-3.4v19.5h42V97.2h-42Zm-4 23.4V143h4.5v-18.4H79v-4.1H32Zm45.8 0V138c0 .8-.3 1-1.1 1h-6.2c.6 1.1 1.2 2.7 1.4 4 4.1 0 6.8-.1 8.5-.7 1.6-.8 2-1.9 2-4.2v-17.6h-4.6Zm-37.3 11.6.3 4.2 29.4-1.6v-3.9c-11 .6-22.3 1-29.7 1.3Zm23.7-5.3c2.8 3.6 5.6 8.5 6.5 11.7l3.8-1.3c-1-3.3-3.8-8-6.7-11.5l-3.6 1.1ZM43.2 84.2v12.1h4.6v-12h-4.6Zm22.5 0v12.1h4.7v-12h-4.7Zm-36.3 4v4.1h55.2v-4.2H29.4Z"/>
</svg>
