<svg xmlns="http://www.w3.org/2000/svg" fill="none" viewBox="0 0 113 158">
  <rect width="113" height="158" fill="#fff" rx="10"/>
  <path fill="#000" d="M41.6 14.3v5h24.9v-5H41.6Zm20.9 0V17h1.2c2 21.8 6.2 41 18 51.2 1.2-1.2 3.3-3 4.7-3.9-11.8-9-16.2-28.2-18-50h-5.9ZM43.3 26.5C41.6 40 37.5 55.8 27.5 64.9c1.2.8 3 2.5 4 3.4 10.4-9.7 14.8-26.3 17.2-41l-5.4-.8Z"/>
  <path fill="#9C151E" d="M54.6 99v34.3h4.6V99.1h-4.6Zm-14 9.6h32.7v4.6H40.7v-4.6Zm0-8h32.7v4.7H40.7v-4.6Zm-4.5-3.4v19.5h42V97.2h-42Zm-4 23.4V143h4.5v-18.4H79v-4.1H32Zm45.8 0V138c0 .8-.3 1-1.1 1h-6.2c.6 1.1 1.2 2.7 1.4 4 4.1 0 6.8-.1 8.5-.7 1.6-.8 2-1.9 2-4.2v-17.6h-4.6Zm-37.3 11.6.3 4.2 29.4-1.6v-3.9c-11 .6-22.3 1-29.7 1.3Zm23.7-5.3c2.8 3.6 5.6 8.5 6.5 11.7l3.8-1.3c-1-3.3-3.8-8-6.7-11.5l-3.6 1.1ZM43.2 84.2v12.1h4.6v-12h-4.6Zm22.5 0v12.1h4.7v-12h-4.7Zm-36.3 4v4.1h55.2v-4.2H29.4Z"/>
</svg>
