<svg xmlns="http://www.w3.org/2000/svg" fill="none" viewBox="0 0 113 158">
  <rect width="113" height="158" fill="#fff" rx="10"/>
  <path fill="#000" d="M47.6 10c0 23.2.4 44.3-20.5 54.3 1.3 1 2.9 2.7 3.6 3.9C52.5 57 52.6 34.5 52.7 9.9h-5.1ZM30 25.6v4.8h39.6v-4.8H30.1Zm36.7 0v34.1c0 5.9 1.6 7.4 6.5 7.4H81c4.7 0 6-2.9 6.5-11.8C86 55 84 54 82.9 53.2c-.2 7.8-.5 9.3-2.3 9.3H74c-2 0-2.3-.4-2.3-2.7V25.7h-5Z"/>
  <path fill="#9C151E" d="M54.6 99v34.3h4.6V99.1h-4.6Zm-14 9.6h32.7v4.6H40.7v-4.6Zm0-8h32.7v4.7H40.7v-4.6Zm-4.5-3.4v19.5h42V97.2h-42Zm-4 23.4V143h4.5v-18.4H79v-4.1H32Zm45.8 0V138c0 .8-.3 1-1.1 1h-6.2c.6 1.1 1.2 2.7 1.4 4 4.1 0 6.8-.1 8.5-.7 1.6-.8 2-1.9 2-4.2v-17.6h-4.6Zm-37.3 11.6.3 4.2 29.4-1.6v-3.9c-11 .6-22.3 1-29.7 1.3Zm23.7-5.3c2.8 3.6 5.6 8.5 6.5 11.7l3.8-1.3c-1-3.3-3.8-8-6.7-11.5l-3.6 1.1ZM43.2 84.2v12.1h4.6v-12h-4.6Zm22.5 0v12.1h4.7v-12h-4.7Zm-36.3 4v4.1h55.2v-4.2H29.4Z"/>
</svg>
