<svg xmlns="http://www.w3.org/2000/svg" fill="none" viewBox="0 0 113 158">
  <rect width="113" height="158" fill="#fff" rx="10"/>
  <ellipse cx="35" cy="47" fill="#000" rx="5" ry="13"/>
  <ellipse cx="78" cy="47" fill="#000" rx="5" ry="13"/>
  <path fill="#000" d="M56.833 76.5c1.206 3.963-6.81 9.913-17.905 13.291-11.095 3.379-22.095-1.291-23.881-6.383 4.286-2.408 9.786 0 19.815-6.908 14.471-13.5 20.764-3.963 21.971 0Z"/>
  <path fill="#000" d="M56.018 76.25c-1.207 3.962 6.81 9.912 17.905 13.29 11.095 3.379 22.095-1.29 23.881-6.383-4.286-2.408-9.786 0-19.815-6.908-14.472-13.5-20.765-3.962-21.971 0Z"/>
</svg>
