<svg xmlns="http://www.w3.org/2000/svg" fill="none" viewBox="0 0 113 158">
  <rect width="112" height="157" x=".5" y=".5" fill="#fff" stroke="#000" rx="9.5"/>
  <path fill="#000" stroke="#000" d="M39.5 47a26 26 0 0 1-1.4 9c-.5 1.2-1 2-1.5 2.6-.6.6-1.1.9-1.6.9s-1-.3-1.6-.9a10 10 0 0 1-1.5-2.6 26 26 0 0 1-1.4-9c0-3.5.6-6.7 1.4-9 .5-1.2 1-2 1.5-2.6.6-.6 1.1-.9 1.6-.9s1 .3 1.6.9c.5.6 1 1.4 1.5 2.6a26 26 0 0 1 1.4 9Zm43 0a26 26 0 0 1-1.4 9c-.5 1.2-1 2-1.5 2.6-.6.6-1.1.9-1.6.9s-1-.3-1.6-.9a10 10 0 0 1-1.5-2.6 26 26 0 0 1-1.4-9c0-3.5.6-6.7 1.4-9 .5-1.2 1-2 1.5-2.6.6-.6 1.1-.9 1.6-.9s1 .3 1.6.9c.5.6 1 1.4 1.5 2.6a26 26 0 0 1 1.4 9ZM35.1 77v-.1h.1c7.2-6.7 12.2-7.6 15.5-6.5a9.7 9.7 0 0 1 5.7 6.2c.2.8 0 1.8-.7 2.9-.7 1.1-2 2.3-3.5 3.5-3.2 2.3-8 4.6-13.4 6.3a25.8 25.8 0 0 1-15.2 0 18 18 0 0 1-5.3-2.7c-1.3-1-2.2-2-2.6-3a11 11 0 0 1 3-.8l1.7-.3h.2L23 82c3-.4 7-1.6 12-5Z"/>
  <path fill="#000" stroke="#000" d="M77.7 76.7c-7.2-6.8-12.2-7.6-15.5-6.5a9.7 9.7 0 0 0-5.7 6.2c-.2.8 0 1.7.7 2.9.7 1 1.9 2.2 3.5 3.4a44 44 0 0 0 13.4 6.4 25.8 25.8 0 0 0 15.1 0 18 18 0 0 0 5.4-2.7c1.2-1 2.1-2 2.6-3a11 11 0 0 0-3-.9l-1.8-.2h-.2l-2.2-.4c-3.3-.6-7.2-1.7-12.3-5.2Z"/>
</svg>
